<svg width="110" height="110" viewBox="0 0 110 110" fill="none" xmlns="http://www.w3.org/2000/svg">
<path d="M8.02081 96.25C7.02776 96.25 6.20658 95.9254 5.55727 95.276C4.90797 94.6267 4.58331 93.8056 4.58331 92.8125C4.58331 91.8195 4.90797 90.9983 5.55727 90.349C6.20658 89.6997 7.02776 89.375 8.02081 89.375H101.979C102.972 89.375 103.793 89.6997 104.443 90.349C105.092 90.9983 105.417 91.8195 105.417 92.8125C105.417 93.8056 105.092 94.6267 104.443 95.276C103.793 95.9254 102.972 96.25 101.979 96.25H8.02081ZM16.0416 82.5C14.2083 82.5 12.6041 81.8125 11.2291 80.4375C9.85415 79.0625 9.16665 77.4583 9.16665 75.625V20.625C9.16665 18.7917 9.85415 17.1875 11.2291 15.8125C12.6041 14.4375 14.2083 13.75 16.0416 13.75H93.9583C95.7916 13.75 97.3958 14.4375 98.7708 15.8125C100.146 17.1875 100.833 18.7917 100.833 20.625V75.625C100.833 77.4583 100.146 79.0625 98.7708 80.4375C97.3958 81.8125 95.7916 82.5 93.9583 82.5H16.0416ZM16.0416 75.625H93.9583V20.625H16.0416V75.625ZM16.0416 75.625V20.625V75.625Z" fill="#894F00"/>
</svg>
