<svg width="40" height="40" viewBox="0 0 40 40" fill="none" xmlns="http://www.w3.org/2000/svg">
<g clip-path="url(#clip0_47_27)">
<path d="M34.6097 0H5.39026C2.41346 0 0.000183105 2.41318 0.000183105 5.39008V34.6097C0.000183105 37.5866 2.41337 39.9998 5.39026 39.9998H19.8012L19.8257 25.706H16.1122C15.6296 25.706 15.2379 25.3158 15.2361 24.8332L15.2182 20.2257C15.2164 19.7405 15.6093 19.3462 16.0945 19.3462H19.8013V14.8942C19.8013 9.72768 22.9566 6.91449 27.5655 6.91449H31.3474C31.8313 6.91449 32.2236 7.30677 32.2236 7.79074V11.6758C32.2236 12.1596 31.8315 12.5517 31.3479 12.552L29.027 12.5531C26.5205 12.5531 26.0352 13.7441 26.0352 15.492V19.3463H31.5427C32.0675 19.3463 32.4746 19.8045 32.4128 20.3256L31.8667 24.9331C31.8144 25.374 31.4405 25.7062 30.9966 25.7062H26.0598L26.0352 40H34.6099C37.5867 40 39.9999 37.5868 39.9999 34.61V5.39008C39.9998 2.41318 37.5866 0 34.6097 0Z" fill="#475993"/>
</g>
<defs>
<clipPath id="clip0_47_27">
<rect width="40" height="40" fill="white"/>
</clipPath>
</defs>
</svg>
