<svg width="296" height="50" viewBox="0 0 296 50" fill="none" xmlns="http://www.w3.org/2000/svg">
<path d="M35.144 39H27.416L26.84 25.992C26.68 22.888 26.6 20.12 26.6 17.688C26.6 15.832 26.648 14.072 26.744 12.408L21.608 35.496H14.168L8.69598 12.408C8.88798 15.192 8.98398 17.816 8.98398 20.28C8.98398 22.136 8.93598 24.072 8.83998 26.088L8.26398 39H0.583984L3.07998 5.73602H13.016L18.008 28.296L22.664 5.73602H32.648L35.144 39Z" fill="url(#paint0_linear_51_3)"/>
<path d="M59.9664 31.608C59.9664 32.568 60.0944 33.272 60.3504 33.72C60.6384 34.168 61.0864 34.504 61.6944 34.728L60.1104 39.672C58.5424 39.544 57.2624 39.208 56.2704 38.664C55.2784 38.088 54.5104 37.192 53.9664 35.976C52.3024 38.536 49.7424 39.816 46.2864 39.816C43.7584 39.816 41.7424 39.08 40.2384 37.608C38.7344 36.136 37.9824 34.216 37.9824 31.848C37.9824 29.064 39.0064 26.936 41.0544 25.464C43.1024 23.992 46.0624 23.256 49.9344 23.256H52.5264V22.152C52.5264 20.648 52.2064 19.624 51.5664 19.08C50.9264 18.504 49.8064 18.216 48.2064 18.216C47.3744 18.216 46.3664 18.344 45.1824 18.6C43.9984 18.824 42.7824 19.144 41.5344 19.56L39.8064 14.568C41.4064 13.96 43.0384 13.496 44.7024 13.176C46.3984 12.856 47.9664 12.696 49.4064 12.696C53.0544 12.696 55.7264 13.448 57.4224 14.952C59.1184 16.456 59.9664 18.712 59.9664 21.72V31.608ZM48.4944 34.392C50.2224 34.392 51.5664 33.576 52.5264 31.944V27.432H50.6544C48.9264 27.432 47.6304 27.736 46.7664 28.344C45.9344 28.952 45.5184 29.896 45.5184 31.176C45.5184 32.2 45.7744 33 46.2864 33.576C46.8304 34.12 47.5664 34.392 48.4944 34.392Z" fill="url(#paint1_linear_51_3)"/>
<path d="M79.8312 12.792C80.7592 12.792 81.6072 12.904 82.3752 13.128L81.1752 20.472C80.2152 20.248 79.4472 20.136 78.8712 20.136C77.3672 20.136 76.2152 20.664 75.4152 21.72C74.6472 22.744 74.0392 24.296 73.5912 26.376V39H66.0072V13.512H72.6312L73.2552 18.456C73.8312 16.696 74.6952 15.32 75.8472 14.328C77.0312 13.304 78.3592 12.792 79.8312 12.792Z" fill="url(#paint2_linear_51_3)"/>
<path d="M94.8597 12.696C96.6197 12.696 98.2037 12.952 99.6117 13.464C101.02 13.976 102.348 14.76 103.596 15.816L100.332 20.328C98.7317 19.112 97.1157 18.504 95.4837 18.504C93.7877 18.504 92.5077 19.128 91.6437 20.376C90.7797 21.624 90.3477 23.64 90.3477 26.424C90.3477 29.112 90.7797 31.016 91.6437 32.136C92.5077 33.256 93.7557 33.816 95.3877 33.816C96.2517 33.816 97.0357 33.688 97.7397 33.432C98.4437 33.144 99.2917 32.696 100.284 32.088L103.596 36.792C101.068 38.808 98.2037 39.816 95.0037 39.816C92.4117 39.816 90.1717 39.272 88.2837 38.184C86.3957 37.064 84.9397 35.512 83.9157 33.528C82.8917 31.512 82.3797 29.16 82.3797 26.472C82.3797 23.784 82.8917 21.4 83.9157 19.32C84.9397 17.24 86.3957 15.624 88.2837 14.472C90.1717 13.288 92.3637 12.696 94.8597 12.696Z" fill="url(#paint3_linear_51_3)"/>
<path d="M116.891 12.696C120.795 12.696 123.851 13.896 126.059 16.296C128.267 18.664 129.371 21.992 129.371 26.28C129.371 29 128.859 31.384 127.835 33.432C126.843 35.448 125.403 37.016 123.515 38.136C121.659 39.256 119.451 39.816 116.891 39.816C113.019 39.816 109.963 38.632 107.723 36.264C105.515 33.864 104.411 30.52 104.411 26.232C104.411 23.512 104.907 21.144 105.899 19.128C106.923 17.08 108.363 15.496 110.219 14.376C112.107 13.256 114.331 12.696 116.891 12.696ZM116.891 18.264C115.355 18.264 114.203 18.92 113.435 20.232C112.667 21.512 112.283 23.512 112.283 26.232C112.283 29.016 112.651 31.048 113.387 32.328C114.155 33.608 115.323 34.248 116.891 34.248C118.427 34.248 119.579 33.608 120.347 32.328C121.115 31.016 121.499 29 121.499 26.28C121.499 23.496 121.115 21.464 120.347 20.184C119.611 18.904 118.459 18.264 116.891 18.264Z" fill="url(#paint4_linear_51_3)"/>
<path d="M142.858 12.696C144.682 12.696 146.394 12.968 147.994 13.512C149.594 14.056 151.002 14.824 152.218 15.816L149.434 20.088C147.354 18.776 145.258 18.12 143.146 18.12C142.154 18.12 141.386 18.296 140.842 18.648C140.33 18.968 140.074 19.432 140.074 20.04C140.074 20.52 140.186 20.92 140.41 21.24C140.666 21.528 141.162 21.832 141.898 22.152C142.634 22.472 143.77 22.856 145.306 23.304C147.962 24.072 149.93 25.08 151.21 26.328C152.522 27.544 153.178 29.24 153.178 31.416C153.178 33.144 152.682 34.648 151.69 35.928C150.698 37.176 149.338 38.136 147.61 38.808C145.882 39.48 143.962 39.816 141.85 39.816C139.706 39.816 137.706 39.48 135.85 38.808C134.026 38.136 132.474 37.208 131.194 36.024L134.89 31.896C137.034 33.56 139.29 34.392 141.658 34.392C142.81 34.392 143.706 34.184 144.346 33.768C145.018 33.352 145.354 32.76 145.354 31.992C145.354 31.384 145.226 30.904 144.97 30.552C144.714 30.2 144.218 29.88 143.482 29.592C142.746 29.272 141.578 28.888 139.978 28.44C137.45 27.704 135.562 26.68 134.314 25.368C133.066 24.056 132.442 22.424 132.442 20.472C132.442 19 132.858 17.688 133.69 16.536C134.554 15.352 135.77 14.424 137.338 13.752C138.938 13.048 140.778 12.696 142.858 12.696Z" fill="url(#paint5_linear_51_3)"/>
<path d="M168.62 39V5.73602H188.444L187.628 11.352H176.492V20.184H186.188V25.8H176.492V39H168.62Z" fill="url(#paint6_linear_51_3)"/>
<path d="M212.403 25.752C212.403 26.808 212.355 27.72 212.259 28.488H196.467C196.723 30.632 197.331 32.136 198.291 33C199.251 33.864 200.579 34.296 202.275 34.296C203.299 34.296 204.291 34.12 205.251 33.768C206.211 33.384 207.251 32.808 208.371 32.04L211.491 36.264C208.515 38.632 205.203 39.816 201.555 39.816C197.427 39.816 194.259 38.6 192.051 36.168C189.843 33.736 188.739 30.472 188.739 26.376C188.739 23.784 189.203 21.464 190.131 19.416C191.059 17.336 192.419 15.704 194.211 14.52C196.003 13.304 198.147 12.696 200.643 12.696C204.323 12.696 207.203 13.848 209.283 16.152C211.363 18.456 212.403 21.656 212.403 25.752ZM204.963 23.592C204.899 19.688 203.523 17.736 200.835 17.736C199.523 17.736 198.499 18.216 197.763 19.176C197.059 20.136 196.627 21.72 196.467 23.928H204.963V23.592Z" fill="url(#paint7_linear_51_3)"/>
<path d="M223.431 39.816C221.223 39.816 219.495 39.192 218.247 37.944C217.031 36.664 216.423 34.856 216.423 32.52V3.38402L224.007 2.56802V32.232C224.007 33.288 224.439 33.816 225.303 33.816C225.751 33.816 226.167 33.736 226.551 33.576L228.039 38.952C226.663 39.528 225.127 39.816 223.431 39.816Z" fill="url(#paint8_linear_51_3)"/>
<path d="M238.497 13.512V39H230.913V13.512H238.497ZM234.657 0.0720215C235.969 0.0720215 237.041 0.488022 237.873 1.32002C238.737 2.12002 239.169 3.14402 239.169 4.39202C239.169 5.64002 238.737 6.68002 237.873 7.51202C237.041 8.31202 235.969 8.71202 234.657 8.71202C233.345 8.71202 232.273 8.31202 231.441 7.51202C230.609 6.68002 230.193 5.64002 230.193 4.39202C230.193 3.14402 230.609 2.12002 231.441 1.32002C232.273 0.488022 233.345 0.0720215 234.657 0.0720215Z" fill="url(#paint9_linear_51_3)"/>
<path d="M258.86 12.696C262.06 12.696 264.444 13.88 266.012 16.248C267.58 18.616 268.364 21.928 268.364 26.184C268.364 28.808 267.948 31.16 267.116 33.24C266.316 35.288 265.148 36.904 263.612 38.088C262.076 39.24 260.284 39.816 258.236 39.816C255.676 39.816 253.612 38.936 252.044 37.176V48.84L244.46 49.656V13.512H251.132L251.516 16.344C252.508 15.096 253.644 14.184 254.924 13.608C256.204 13 257.516 12.696 258.86 12.696ZM255.932 34.248C258.972 34.248 260.492 31.592 260.492 26.28C260.492 23.272 260.156 21.192 259.484 20.04C258.812 18.856 257.804 18.264 256.46 18.264C255.596 18.264 254.78 18.52 254.012 19.032C253.276 19.544 252.62 20.28 252.044 21.24V31.992C253.068 33.496 254.364 34.248 255.932 34.248Z" fill="url(#paint10_linear_51_3)"/>
<path d="M295.325 25.752C295.325 26.808 295.277 27.72 295.181 28.488H279.389C279.645 30.632 280.253 32.136 281.213 33C282.173 33.864 283.501 34.296 285.197 34.296C286.221 34.296 287.213 34.12 288.173 33.768C289.133 33.384 290.173 32.808 291.293 32.04L294.413 36.264C291.437 38.632 288.125 39.816 284.477 39.816C280.349 39.816 277.181 38.6 274.973 36.168C272.765 33.736 271.661 30.472 271.661 26.376C271.661 23.784 272.125 21.464 273.053 19.416C273.981 17.336 275.341 15.704 277.133 14.52C278.925 13.304 281.069 12.696 283.565 12.696C287.245 12.696 290.125 13.848 292.205 16.152C294.285 18.456 295.325 21.656 295.325 25.752ZM287.885 23.592C287.821 19.688 286.445 17.736 283.757 17.736C282.445 17.736 281.421 18.216 280.685 19.176C279.981 20.136 279.549 21.72 279.389 23.928H287.885V23.592Z" fill="url(#paint11_linear_51_3)"/>
<defs>
<linearGradient id="paint0_linear_51_3" x1="154.5" y1="-6" x2="154.5" y2="58" gradientUnits="userSpaceOnUse">
<stop stop-color="#B6751D"/>
<stop offset="1" stop-color="#673E00"/>
</linearGradient>
<linearGradient id="paint1_linear_51_3" x1="154.5" y1="-6" x2="154.5" y2="58" gradientUnits="userSpaceOnUse">
<stop stop-color="#B6751D"/>
<stop offset="1" stop-color="#673E00"/>
</linearGradient>
<linearGradient id="paint2_linear_51_3" x1="154.5" y1="-6" x2="154.5" y2="58" gradientUnits="userSpaceOnUse">
<stop stop-color="#B6751D"/>
<stop offset="1" stop-color="#673E00"/>
</linearGradient>
<linearGradient id="paint3_linear_51_3" x1="154.5" y1="-6" x2="154.5" y2="58" gradientUnits="userSpaceOnUse">
<stop stop-color="#B6751D"/>
<stop offset="1" stop-color="#673E00"/>
</linearGradient>
<linearGradient id="paint4_linear_51_3" x1="154.5" y1="-6" x2="154.5" y2="58" gradientUnits="userSpaceOnUse">
<stop stop-color="#B6751D"/>
<stop offset="1" stop-color="#673E00"/>
</linearGradient>
<linearGradient id="paint5_linear_51_3" x1="154.5" y1="-6" x2="154.5" y2="58" gradientUnits="userSpaceOnUse">
<stop stop-color="#B6751D"/>
<stop offset="1" stop-color="#673E00"/>
</linearGradient>
<linearGradient id="paint6_linear_51_3" x1="154.5" y1="-6" x2="154.5" y2="58" gradientUnits="userSpaceOnUse">
<stop stop-color="#B6751D"/>
<stop offset="1" stop-color="#673E00"/>
</linearGradient>
<linearGradient id="paint7_linear_51_3" x1="154.5" y1="-6" x2="154.5" y2="58" gradientUnits="userSpaceOnUse">
<stop stop-color="#B6751D"/>
<stop offset="1" stop-color="#673E00"/>
</linearGradient>
<linearGradient id="paint8_linear_51_3" x1="154.5" y1="-6" x2="154.5" y2="58" gradientUnits="userSpaceOnUse">
<stop stop-color="#B6751D"/>
<stop offset="1" stop-color="#673E00"/>
</linearGradient>
<linearGradient id="paint9_linear_51_3" x1="154.5" y1="-6" x2="154.5" y2="58" gradientUnits="userSpaceOnUse">
<stop stop-color="#B6751D"/>
<stop offset="1" stop-color="#673E00"/>
</linearGradient>
<linearGradient id="paint10_linear_51_3" x1="154.5" y1="-6" x2="154.5" y2="58" gradientUnits="userSpaceOnUse">
<stop stop-color="#B6751D"/>
<stop offset="1" stop-color="#673E00"/>
</linearGradient>
<linearGradient id="paint11_linear_51_3" x1="154.5" y1="-6" x2="154.5" y2="58" gradientUnits="userSpaceOnUse">
<stop stop-color="#B6751D"/>
<stop offset="1" stop-color="#673E00"/>
</linearGradient>
</defs>
</svg>
