<svg width="715" height="670" viewBox="0 0 715 670" fill="none" xmlns="http://www.w3.org/2000/svg">
<g clip-path="url(#clip0_35_46)">
<path d="M519.094 380.198V565.281L550.203 615.735L552.571 619.572H675.323L677.803 380.198H519.094Z" fill="#E6E6E6"/>
<path opacity="0.1" d="M519.094 380.198V565.281L550.203 615.735L552.113 380.198H519.094Z" fill="black"/>
<path d="M222.754 375.262V560.345L191.644 610.799L189.276 614.636H66.5247L64.0445 375.262H222.754Z" fill="#E6E6E6"/>
<path opacity="0.1" d="M222.754 375.262V560.345L191.644 610.799L189.735 375.262H222.754Z" fill="black"/>
<path d="M715 371.561V382.665H47.9255V366.625L109.921 334.543H660.444L715 371.561Z" fill="#E6E6E6"/>
<path opacity="0.1" d="M715 371.561V382.665H47.9255V366.625L715 371.561Z" fill="black"/>
<path d="M143.4 427.085H113.641L101.242 418.448H157.038L143.4 427.085Z" fill="#3F3D56"/>
<path d="M143.4 462.868H113.641L101.242 454.231H157.038L143.4 462.868Z" fill="#3F3D56"/>
<path d="M143.4 513.458H113.641L101.242 504.82H157.038L143.4 513.458Z" fill="#3F3D56"/>
<path d="M143.4 564.047H113.641L101.242 555.41H157.038L143.4 564.047Z" fill="#3F3D56"/>
<path d="M598.448 432.021H628.206L640.605 423.384H584.809L598.448 432.021Z" fill="#3F3D56"/>
<path d="M598.448 467.804H628.206L640.605 459.166H584.809L598.448 467.804Z" fill="#3F3D56"/>
<path d="M598.448 518.394H628.206L640.605 509.756H584.809L598.448 518.394Z" fill="#3F3D56"/>
<path d="M598.448 568.982H628.206L640.605 560.345H584.809L598.448 568.982Z" fill="#3F3D56"/>
<path d="M618.713 120.513H368.191C366.947 120.513 365.715 120.757 364.566 121.231C363.416 121.704 362.372 122.399 361.492 123.275C360.612 124.15 359.914 125.189 359.438 126.333C358.962 127.477 358.717 128.704 358.717 129.942V297.879C358.717 299.117 358.962 300.343 359.438 301.487C359.914 302.631 360.612 303.671 361.492 304.546C362.372 305.422 363.416 306.116 364.566 306.59C365.715 307.064 366.947 307.307 368.191 307.307H463.291L459.729 329.944C459.729 329.944 439.367 340.709 453.684 341.025C468 341.342 535.447 341.025 535.447 341.025C535.447 341.025 548.491 341.025 527.812 329.628L524.46 307.307H618.713C619.957 307.308 621.189 307.064 622.338 306.59C623.488 306.116 624.533 305.422 625.412 304.546C626.292 303.671 626.99 302.631 627.466 301.487C627.942 300.343 628.187 299.117 628.187 297.879V129.942C628.187 128.704 627.942 127.477 627.466 126.333C626.99 125.189 626.292 124.15 625.412 123.275C624.533 122.399 623.488 121.704 622.338 121.231C621.189 120.757 619.957 120.513 618.713 120.513Z" fill="#3F3D56"/>
<path d="M619.12 130.486H367.784V270.423H619.12V130.486Z" fill="#F2F2F2"/>
<path d="M493.452 127.637C494.331 127.637 495.043 126.928 495.043 126.054C495.043 125.18 494.331 124.471 493.452 124.471C492.573 124.471 491.861 125.18 491.861 126.054C491.861 126.928 492.573 127.637 493.452 127.637Z" fill="#F2F2F2"/>
<path d="M493.452 300.5C496.79 300.5 499.497 297.807 499.497 294.485C499.497 291.163 496.79 288.47 493.452 288.47C490.114 288.47 487.407 291.163 487.407 294.485C487.407 297.807 490.114 300.5 493.452 300.5Z" fill="#F2F2F2"/>
<path d="M484.033 358.122V361.288H312.87V358.755L313.105 358.122L317.324 346.724H480.533L484.033 358.122Z" fill="#3F3D56"/>
<path d="M549.901 355.022C549.59 356.349 548.412 357.748 545.753 359.071C536.208 363.82 516.801 357.805 516.801 357.805C516.801 357.805 501.849 355.272 501.849 348.624C502.268 348.338 502.706 348.078 503.159 347.848C507.172 345.735 520.477 340.522 544.068 348.069C545.806 348.612 547.358 349.624 548.552 350.993C549.081 351.511 549.479 352.146 549.714 352.846C549.948 353.547 550.013 354.292 549.901 355.022Z" fill="#3F3D56"/>
<path opacity="0.1" d="M549.901 355.022C538.219 359.477 527.806 359.809 517.12 352.423C513.078 349.45 508.185 347.846 503.159 347.848C507.172 345.735 520.477 340.522 544.068 348.069C545.806 348.612 547.358 349.624 548.552 350.993C549.081 351.511 549.479 352.146 549.714 352.846C549.948 353.547 550.013 354.292 549.901 355.022Z" fill="black"/>
<path d="M535.254 352.423C537.538 352.423 539.39 351.856 539.39 351.156C539.39 350.457 537.538 349.89 535.254 349.89C532.97 349.89 531.118 350.457 531.118 351.156C531.118 351.856 532.97 352.423 535.254 352.423Z" fill="#F2F2F2"/>
<path opacity="0.1" d="M484.033 358.122V361.288H312.87V358.755L313.105 358.122H484.033Z" fill="black"/>
<path d="M95.1689 0.000141528C93.4317 -0.14179 91.6923 0.244898 90.181 1.10897C88.6971 2.12024 87.7618 3.8919 86.8071 5.54053C83.157 11.9192 78.2154 17.4739 72.2955 21.8529C67.9836 24.9964 62.5016 28.9159 63.2393 34.7117C63.6285 36.6257 64.339 38.4607 65.3411 40.1397C69.3189 48.1305 80.1737 54.3057 79.106 63.4239C83.0581 56.8398 77.7719 53.5842 81.724 47.0002C83.6061 43.8647 86.8756 40.3254 89.7172 42.2945C90.6686 42.9538 91.2933 44.1363 92.284 44.7148C94.6478 46.0952 97.1626 43.4562 99.255 41.587C106.47 35.1413 116.731 36.8299 125.71 38.8382C129.949 39.7864 134.605 41.0303 137.11 45.0619C140.405 50.3626 133.98 56.0875 132.357 62.0804C132.225 62.5911 132.218 63.1261 132.339 63.6397C132.459 64.1533 132.703 64.6302 133.049 65.0296C133.395 65.429 133.833 65.7391 134.326 65.9332C134.819 66.1274 135.352 66.1999 135.879 66.1445C138.573 65.88 141.764 65.6633 141.924 64.4868C145.313 64.6068 149.467 64.2248 150.919 60.7125C151.363 59.3228 151.597 57.8754 151.615 56.4173C152.148 50.5173 154.665 45.1347 156.332 39.5193C157.999 33.9039 158.723 27.3231 155.91 22.3444C154.906 20.6879 153.665 19.1862 152.225 17.8867C136.26 2.51269 115.271 -0.0226793 95.1689 0.000141528Z" fill="#2F2E41"/>
<path d="M82.578 74.9407C82.578 74.9407 86.0499 103.733 73.3195 106.036C60.5891 108.339 84.8926 147.497 84.8926 147.497L142.758 154.407L128.87 108.339C128.87 108.339 119.612 104.884 125.398 81.8508C131.185 58.8172 82.578 74.9407 82.578 74.9407Z" fill="#FFB8B8"/>
<path d="M47.2801 569.588L51.9098 632.931H76.2123L69.2693 569.588H47.2801Z" fill="#FFB8B8"/>
<path d="M225.505 449.813L228.977 502.79L255.596 491.274L245.179 447.51L225.505 449.813Z" fill="#FFB8B8"/>
<path d="M29.9205 327.735C29.9205 327.735 31.0778 394.532 38.0217 416.414C44.9656 438.296 43.8082 439.448 42.6509 442.903C41.4936 446.358 40.3363 444.055 40.3363 449.813C40.3363 455.572 38.0217 546.554 40.3363 554.616C42.6509 562.678 33.3925 576.498 40.3363 577.65C47.2801 578.801 79.6847 577.65 80.842 570.74C81.9994 563.83 71.5836 561.526 76.2128 556.92C80.8421 552.313 87.7859 457.875 87.7859 457.875L103.988 392.229L134.078 357.679H197.73L217.404 433.69C217.404 433.69 209.303 455.572 215.09 455.572C220.876 455.572 255.595 462.482 255.595 437.145C255.595 411.808 244.022 336.948 241.708 334.645C239.393 332.342 242.865 324.28 239.393 320.825C235.921 317.37 195.415 293.184 180.37 288.578C165.325 283.971 144.22 278.488 144.22 278.488L29.9205 327.735Z" fill="#2F2E41"/>
<path d="M255.595 482.06C255.595 482.06 238.236 476.302 230.135 493.577C222.033 510.852 225.505 515.459 225.505 515.459C225.505 515.459 252.123 524.672 256.753 520.066C258.767 518.061 265.162 517.365 271.745 517.218C281.772 516.994 284.439 502.878 274.97 499.591C274.687 499.493 274.402 499.408 274.112 499.335C264.854 497.032 255.595 482.06 255.595 482.06Z" fill="#2F2E41"/>
<path d="M108.617 93.9434C127.792 93.9434 143.337 78.4747 143.337 59.393C143.337 40.3113 127.792 24.8425 108.617 24.8425C89.4425 24.8425 73.8982 40.3113 73.8982 59.393C73.8982 78.4747 89.4425 93.9434 108.617 93.9434Z" fill="#FFB8B8"/>
<path d="M63.4824 120.432C63.4824 120.432 120.19 131.949 134.078 113.522C147.966 95.0951 153.752 165.348 153.752 165.348L160.696 239.055L150.28 279.364C150.28 279.364 95.887 323.128 78.5274 326.583C61.1678 330.038 34.5497 332.342 34.5497 332.342C34.5497 332.342 42.6509 204.505 42.6509 202.201C42.6509 199.898 63.4824 120.432 63.4824 120.432Z" fill="#AD690B"/>
<path d="M80.7287 98.8327C80.7287 98.8327 68.1116 91.6401 64.6397 98.5502C61.1678 105.46 28.7632 122.735 25.2913 122.735C21.8194 122.735 32.2351 218.325 27.6059 229.842C22.9767 241.359 0.987866 325.431 13.7182 332.342C26.4486 339.252 17.1902 325.431 29.9205 342.707C42.6509 359.982 105.145 359.982 108.617 353.072C112.089 346.162 80.842 294.336 86.6285 245.965C92.4151 197.595 101.674 130.797 93.5724 121.584C85.4713 112.37 80.7287 98.8327 80.7287 98.8327Z" fill="#2F2E41"/>
<path d="M122.505 106.612L124.117 101.091C124.117 101.091 172.269 116.977 174.584 127.342C176.899 137.707 175.741 210.263 167.64 216.022C159.539 221.78 147.966 230.994 156.067 244.814C164.168 258.634 173.427 273.606 180.37 274.757C187.314 275.909 200.045 283.971 196.573 292.033C193.101 300.094 151.438 285.123 151.438 285.123C151.438 285.123 123.662 264.392 124.82 232.145C125.977 199.898 122.505 106.612 122.505 106.612Z" fill="#2F2E41"/>
<path d="M163.011 242.51L135.235 294.336C135.235 294.336 94.7297 335.797 117.876 340.403C141.022 345.01 153.752 302.398 153.752 302.398L183.842 259.786L163.011 242.51Z" fill="#FFB8B8"/>
<path d="M96.8602 9.04018C95.4608 8.93699 94.059 9.20755 92.7999 9.82389C91.6614 10.6513 90.723 11.7215 90.0534 12.9561C86.9666 17.5768 82.9427 21.5041 78.2403 24.4856C74.7302 26.7074 70.2677 29.4776 70.8682 33.5741C71.1942 34.9475 71.7744 36.2485 72.5792 37.4106C75.8284 43.1155 77.122 49.7184 76.264 56.2202L85.9156 42.2595C87.4477 40.0434 90.1092 37.5418 92.4223 38.9336C93.1968 39.3995 93.7054 40.2353 94.5118 40.6442C96.4361 41.6199 98.4832 39.7547 100.187 38.4335C106.06 33.8777 114.413 35.0712 121.722 36.4907C125.173 37.1608 128.963 38.04 131.002 40.8895C134.392 45.6249 130.853 52.4671 132.831 57.9376C133.385 57.5518 133.855 57.0592 134.214 56.4891C134.573 55.9191 134.813 55.2831 134.921 54.6189C137.68 54.7038 141.061 54.4338 142.243 51.9512C142.603 50.9783 142.794 49.9519 142.81 48.9154C143.244 44.7453 145.292 40.941 146.649 36.9721C148.006 33.0032 148.596 28.3518 146.306 24.8329C145.468 23.6406 144.457 22.5788 143.306 21.6823C130.31 10.816 113.224 9.02405 96.8602 9.04018Z" fill="#2F2E41"/>
<path d="M163.011 122.735L173.794 125.584C173.794 125.584 198.887 189.533 193.101 233.297C187.314 277.061 183.842 267.847 183.842 267.847C183.842 267.847 174.584 247.117 153.752 251.724L163.011 122.735Z" fill="#2F2E41"/>
<path d="M48.8835 624.559C46.0927 628.333 46.6523 633.728 44.1802 637.716C42.0373 641.173 37.9988 642.986 35.3185 646.049C34.4633 647.066 33.7008 648.158 33.0402 649.31C30.5539 653.455 28.5329 658.766 30.9816 662.933C32.9515 666.285 37.0921 667.595 40.8894 668.488C45.6891 669.616 50.676 670.519 55.531 669.657C60.3861 668.795 65.1311 665.836 66.8622 661.241C67.2024 660.085 67.6068 658.949 68.0737 657.838C70.7052 652.683 78.9592 652.627 81.6524 647.503C83.5371 643.918 81.8046 639.583 80.0728 635.922L74.7835 624.74C73.0282 621.029 65.9126 623.163 62.203 622.274C57.365 621.114 52.364 619.836 48.8835 624.559Z" fill="#2F2E41"/>
<path d="M10.2463 265.544L58.8532 340.403C58.8532 340.403 88.9431 378.409 98.2016 361.134C107.46 343.858 65.797 315.066 65.797 315.066L34.5497 257.482L10.2463 265.544Z" fill="#FFB8B8"/>
<path d="M34.5497 125.039L25.2913 122.735C25.2913 122.735 6.77438 128.494 2.14516 152.679C-2.48406 176.865 0.98785 273.606 6.77438 274.757C12.5609 275.909 35.354 257.913 39.0024 261.728C42.6509 265.544 31.0778 245.965 34.5497 235.6C38.0216 225.235 34.5497 125.039 34.5497 125.039Z" fill="#2F2E41"/>
<path d="M469.663 176.446H439.751V183.612H469.663V176.446Z" fill="#6C63FF"/>
<path d="M573.247 176.446H562.722V183.612H573.247V176.446Z" fill="#6C63FF"/>
<path d="M594.296 176.446H583.771V183.612H594.296V176.446Z" fill="#6C63FF"/>
<path d="M551.644 176.446H480.188V183.612H551.644V176.446Z" fill="#6C63FF"/>
<path d="M431.997 222.75H402.085V229.916H431.997V222.75Z" fill="#6C63FF"/>
<path d="M535.58 222.75H525.056V229.916H535.58V222.75Z" fill="#6C63FF"/>
<path d="M556.629 222.75H546.105V229.916H556.629V222.75Z" fill="#6C63FF"/>
<path d="M513.977 222.75H442.521V229.916H513.977V222.75Z" fill="#6C63FF"/>
<path d="M555.521 192.432H525.609V199.598H555.521V192.432Z" fill="#6C63FF"/>
<path d="M595.958 192.432H566.046V199.598H595.958V192.432Z" fill="#6C63FF"/>
<path d="M412.609 192.432H402.085V199.598H412.609V192.432Z" fill="#6C63FF"/>
<path d="M433.658 192.432H423.134V199.598H433.658V192.432Z" fill="#6C63FF"/>
<path d="M515.639 192.432H444.183V199.598H515.639V192.432Z" fill="#6C63FF"/>
<path d="M493.482 207.866H463.57V215.032H493.482V207.866Z" fill="#6C63FF"/>
<path d="M453.046 207.866H423.134V215.032H453.046V207.866Z" fill="#6C63FF"/>
<path d="M412.609 207.866H402.085V215.032H412.609V207.866Z" fill="#6C63FF"/>
<path d="M595.958 207.866H585.433V215.032H595.958V207.866Z" fill="#6C63FF"/>
<path d="M574.909 207.866H503.453V215.032H574.909V207.866Z" fill="#6C63FF"/>
</g>
<defs>
<clipPath id="clip0_35_46">
<rect width="715" height="670" fill="white"/>
</clipPath>
</defs>
</svg>
